{
  "accessors": [
    {
      "bufferView": 0,
      "componentType": 5126,
      "count": 31626,
      "type": "VEC3",
      "max": [
        18.5440369,
        4.895578,
        9.1207695
      ],
      "min": [
        -28.57244,
        -0.114007115,
        -0.0396612175
      ]
    },
    {
      "bufferView": 1,
      "componentType": 5125,
      "count": 154335,
      "type": "SCALAR",
      "max": [
        31625.0
      ],
      "min": [
        0.0
      ]
    },
    {
      "bufferView": 2,
      "componentType": 5126,
      "count": 31626,
      "type": "VEC3",
      "max": [
        1.0,
        1.0,
        1.0
      ],
      "min": [
        -1.0,
        -1.0,
        -1.0
      ]
    }
  ],
  "asset": {
    "version": "2.0"
  },
  "buffers": [
    {
      "uri": "data:application/octet-stream;base64,",
      "byteLength": 379512
    },
    {
      "uri": "data:application/octet-stream;base64,",
      "byteLength": 617340
    },
    {
      "uri": "data:application/octet-stream;base64,",
      "byteLength": 379512
    }
  ],
  "bufferViews": [
    {
      "buffer": 0,
      "byteLength": 379512,
      "target": 34962
    },
    {
      "buffer": 1,
      "byteLength": 617340,
      "target": 34963
    },
    {
      "buffer": 2,
      "byteLength": 379512,
      "target": 34962
    }
  ],
  "materials": [
    {
      "pbrMetallicRoughness": {
        "baseColorFactor": [
          0.957369566,
          0.957369566,
          0.957369566,
          1.0
        ],
        "metallicFactor": 0.0
      }
    }
  ],
  "meshes": [
    {
      "primitives": [
        {
          "attributes": {
            "POSITION": 0,
            "NORMAL": 2
          },
          "indices": 1,
          "material": 0
        }
      ]
    }
  ],
  "nodes": [
    {
      "mesh": 0
    }
  ],
  "samplers": [
    {
      "magFilter": 9729,
      "minFilter": 9729
    }
  ],
  "scene": 0,
  "scenes": [
    {
      "nodes": [
        0
      ],
      "extensions": {}
    }
  ],
  "extensions": {}
}