{
  "accessors": [
    {
      "bufferView": 0,
      "componentType": 5126,
      "count": 28585,
      "type": "VEC3",
      "max": [
        0.4733396,
        5.08722067,
        2.71581984
      ],
      "min": [
        -0.380234838,
        0.007531058,
        1.86224544
      ]
    },
    {
      "bufferView": 1,
      "componentType": 5125,
      "count": 56970,
      "type": "SCALAR",
      "max": [
        28584.0
      ],
      "min": [
        0.0
      ]
    },
    {
      "bufferView": 2,
      "componentType": 5126,
      "count": 28585,
      "type": "VEC3",
      "max": [
        0.9977447,
        1.0,
        0.9977447
      ],
      "min": [
        -0.9977447,
        -1.0,
        -0.9977447
      ]
    },
    {
      "bufferView": 3,
      "componentType": 5126,
      "count": 28585,
      "type": "VEC2",
      "max": [
        2215.81,
        275.509
      ],
      "min": [
        -2295.56,
        -5296.68
      ]
    }
  ],
  "asset": {
    "version": "2.0"
  },
  "buffers": [
    {
      "uri": "data:application/octet-stream;base64,",
      "byteLength": 343020
    },
    {
      "uri": "data:application/octet-stream;base64,",
      "byteLength": 227880
    },
    {
      "uri": "data:application/octet-stream;base64,",
      "byteLength": 343020
    },
    {
      "uri": "data:application/octet-stream;base64,",
      "byteLength": 228680
    }
  ],
  "bufferViews": [
    {
      "buffer": 0,
      "byteLength": 343020,
      "target": 34962
    },
    {
      "buffer": 1,
      "byteLength": 227880,
      "target": 34963
    },
    {
      "buffer": 2,
      "byteLength": 343020,
      "target": 34962
    },
    {
      "buffer": 3,
      "byteLength": 228680,
      "target": 34962
    }
  ],
  "materials": [
    {
      "pbrMetallicRoughness": {
        "baseColorFactor": [
          0.957369566,
          0.957369566,
          0.957369566,
          1.0
        ],
        "metallicFactor": 0.0
      }
    }
  ],
  "meshes": [
    {
      "primitives": [
        {
          "attributes": {
            "POSITION": 0,
            "NORMAL": 2,
            "TEXCOORD_0": 3
          },
          "indices": 1,
          "material": 0
        }
      ]
    }
  ],
  "nodes": [
    {
      "mesh": 0
    }
  ],
  "samplers": [
    {
      "magFilter": 9729,
      "minFilter": 9729
    }
  ],
  "scene": 0,
  "scenes": [
    {
      "nodes": [
        0
      ],
      "extensions": {}
    }
  ],
  "extensions": {}
}