{
  "accessors": [
    {
      "bufferView": 0,
      "componentType": 5126,
      "count": 34898,
      "type": "VEC3",
      "max": [
        10.5131721,
        6.482437,
        4.51818132
      ],
      "min": [
        -9.71601,
        -1.60868585,
        -4.54224873
      ]
    },
    {
      "bufferView": 1,
      "componentType": 5125,
      "count": 57534,
      "type": "SCALAR",
      "max": [
        34897.0
      ],
      "min": [
        0.0
      ]
    },
    {
      "bufferView": 2,
      "componentType": 5126,
      "count": 34898,
      "type": "VEC3",
      "max": [
        1.0,
        1.0,
        1.0
      ],
      "min": [
        -1.0,
        -1.0,
        -1.0
      ]
    },
    {
      "bufferView": 3,
      "componentType": 5126,
      "count": 34898,
      "type": "VEC2",
      "max": [
        1103.54333,
        212.023621
      ],
      "min": [
        -1109.84253,
        -335.439636
      ]
    }
  ],
  "asset": {
    "version": "2.0"
  },
  "buffers": [
    {
      "uri": "data:application/octet-stream;base64,",
      "byteLength": 418776
    },
    {
      "uri": "data:application/octet-stream;base64,",
      "byteLength": 230136
    },
    {
      "uri": "data:application/octet-stream;base64,",
      "byteLength": 418776
    },
    {
      "uri": "data:application/octet-stream;base64,",
      "byteLength": 279184
    }
  ],
  "bufferViews": [
    {
      "buffer": 0,
      "byteLength": 418776,
      "target": 34962
    },
    {
      "buffer": 1,
      "byteLength": 230136,
      "target": 34963
    },
    {
      "buffer": 2,
      "byteLength": 418776,
      "target": 34962
    },
    {
      "buffer": 3,
      "byteLength": 279184,
      "target": 34962
    }
  ],
  "materials": [
    {
      "pbrMetallicRoughness": {
        "baseColorFactor": [
          0.957369566,
          0.957369566,
          0.957369566,
          1.0
        ],
        "metallicFactor": 0.0
      }
    }
  ],
  "meshes": [
    {
      "primitives": [
        {
          "attributes": {
            "POSITION": 0,
            "NORMAL": 2,
            "TEXCOORD_0": 3
          },
          "indices": 1,
          "material": 0
        }
      ]
    }
  ],
  "nodes": [
    {
      "mesh": 0,
      "name": "Mesh2"
    }
  ],
  "samplers": [
    {
      "magFilter": 9729,
      "minFilter": 9729
    }
  ],
  "scene": 0,
  "scenes": [
    {
      "nodes": [
        0
      ],
      "extensions": {}
    }
  ],
  "extensions": {}
}