{
  "accessors": [
    {
      "bufferView": 0,
      "componentType": 5126,
      "count": 16254,
      "type": "VEC3",
      "max": [
        10.5131721,
        4.873751,
        4.51818132
      ],
      "min": [
        -9.71601,
        -1.60868585,
        -4.54224873
      ]
    },
    {
      "bufferView": 1,
      "componentType": 5125,
      "count": 31746,
      "type": "SCALAR",
      "max": [
        16253.0
      ],
      "min": [
        0.0
      ]
    },
    {
      "bufferView": 2,
      "componentType": 5126,
      "count": 16254,
      "type": "VEC3",
      "max": [
        1.0,
        1.0,
        1.0
      ],
      "min": [
        -1.0,
        -1.0,
        -1.0
      ]
    },
    {
      "bufferView": 3,
      "componentType": 5126,
      "count": 16254,
      "type": "VEC2",
      "max": [
        887.1811,
        307.75827
      ],
      "min": [
        -887.1811,
        -523.9756
      ]
    }
  ],
  "asset": {
    "version": "2.0"
  },
  "buffers": [
    {
      "uri": "data:application/octet-stream;base64,",
      "byteLength": 195048
    },
    {
      "uri": "data:application/octet-stream;base64,",
      "byteLength": 126984
    },
    {
      "uri": "data:application/octet-stream;base64,",
      "byteLength": 195048
    },
    {
      "uri": "data:application/octet-stream;base64,",
      "byteLength": 130032
    }
  ],
  "bufferViews": [
    {
      "buffer": 0,
      "byteLength": 195048,
      "target": 34962
    },
    {
      "buffer": 1,
      "byteLength": 126984,
      "target": 34963
    },
    {
      "buffer": 2,
      "byteLength": 195048,
      "target": 34962
    },
    {
      "buffer": 3,
      "byteLength": 130032,
      "target": 34962
    }
  ],
  "materials": [
    {
      "name": "_[imported]",
      "pbrMetallicRoughness": {
        "baseColorFactor": [
          0.0253712758,
          0.0253712758,
          0.0253712758,
          1.0
        ],
        "metallicFactor": 0.0
      }
    }
  ],
  "meshes": [
    {
      "primitives": [
        {
          "attributes": {
            "POSITION": 0,
            "NORMAL": 2,
            "TEXCOORD_0": 3
          },
          "indices": 1,
          "material": 0
        }
      ]
    }
  ],
  "nodes": [
    {
      "mesh": 0
    }
  ],
  "samplers": [
    {
      "magFilter": 9729,
      "minFilter": 9729
    }
  ],
  "scene": 0,
  "scenes": [
    {
      "nodes": [
        0
      ],
      "extensions": {}
    }
  ],
  "extensions": {}
}