{
  "accessors": [
    {
      "bufferView": 0,
      "componentType": 5126,
      "count": 47587,
      "type": "VEC3",
      "max": [
        11.545845,
        4.178506,
        7.48375225
      ],
      "min": [
        -8.683338,
        -2.303931,
        -1.57667816
      ]
    },
    {
      "bufferView": 1,
      "componentType": 5125,
      "count": 207861,
      "type": "SCALAR",
      "max": [
        47586.0
      ],
      "min": [
        0.0
      ]
    },
    {
      "bufferView": 2,
      "componentType": 5126,
      "count": 47587,
      "type": "VEC3",
      "max": [
        1.0,
        1.0,
        1.0
      ],
      "min": [
        -1.0,
        -1.0,
        -1.0
      ]
    }
  ],
  "asset": {
    "version": "2.0"
  },
  "buffers": [
    {
      "uri": "data:application/octet-stream;base64,",
      "byteLength": 571044
    },
    {
      "uri": "data:application/octet-stream;base64,",
      "byteLength": 831444
    },
    {
      "uri": "data:application/octet-stream;base64,",
      "byteLength": 571044
    }
  ],
  "bufferViews": [
    {
      "buffer": 0,
      "byteLength": 571044,
      "target": 34962
    },
    {
      "buffer": 1,
      "byteLength": 831444,
      "target": 34963
    },
    {
      "buffer": 2,
      "byteLength": 571044,
      "target": 34962
    }
  ],
  "materials": [
    {
      "name": "_[imported]",
      "pbrMetallicRoughness": {
        "baseColorFactor": [
          0.0253712758,
          0.0253712758,
          0.0253712758,
          1.0
        ],
        "metallicFactor": 0.0
      }
    }
  ],
  "meshes": [
    {
      "primitives": [
        {
          "attributes": {
            "POSITION": 0,
            "NORMAL": 2
          },
          "indices": 1,
          "material": 0
        }
      ]
    }
  ],
  "nodes": [
    {
      "mesh": 0
    }
  ],
  "samplers": [
    {
      "magFilter": 9729,
      "minFilter": 9729
    }
  ],
  "scene": 0,
  "scenes": [
    {
      "nodes": [
        0
      ],
      "extensions": {}
    }
  ],
  "extensions": {}
}