{
  "accessors": [
    {
      "bufferView": 0,
      "componentType": 5126,
      "count": 3560,
      "type": "VEC3",
      "max": [
        1.74027526,
        0.7373093,
        1.12018621
      ],
      "min": [
        1.05136967,
        0.0209881086,
        0.4214401
      ]
    },
    {
      "bufferView": 1,
      "componentType": 5125,
      "count": 11628,
      "type": "SCALAR",
      "max": [
        3559.0
      ],
      "min": [
        0.0
      ]
    },
    {
      "bufferView": 2,
      "componentType": 5126,
      "count": 3560,
      "type": "VEC3",
      "max": [
        0.9989287,
        0.999993145,
        0.999105334
      ],
      "min": [
        -0.9972956,
        -0.999993145,
        -0.9973024
      ]
    }
  ],
  "asset": {
    "version": "2.0"
  },
  "buffers": [
    {
      "uri": "data:application/octet-stream;base64,",
      "byteLength": 42720
    },
    {
      "uri": "data:application/octet-stream;base64,",
      "byteLength": 46512
    },
    {
      "uri": "data:application/octet-stream;base64,",
      "byteLength": 42720
    }
  ],
  "bufferViews": [
    {
      "buffer": 0,
      "byteLength": 42720,
      "target": 34962
    },
    {
      "buffer": 1,
      "byteLength": 46512,
      "target": 34963
    },
    {
      "buffer": 2,
      "byteLength": 42720,
      "target": 34962
    }
  ],
  "materials": [
    {
      "name": "_[imported]",
      "pbrMetallicRoughness": {
        "baseColorFactor": [
          0.0253712758,
          0.0253712758,
          0.0253712758,
          1.0
        ],
        "metallicFactor": 0.0
      }
    }
  ],
  "meshes": [
    {
      "primitives": [
        {
          "attributes": {
            "POSITION": 0,
            "NORMAL": 2
          },
          "indices": 1,
          "material": 0
        }
      ]
    }
  ],
  "nodes": [
    {
      "mesh": 0
    }
  ],
  "samplers": [
    {
      "magFilter": 9729,
      "minFilter": 9729
    }
  ],
  "scene": 0,
  "scenes": [
    {
      "nodes": [
        0
      ],
      "extensions": {}
    }
  ],
  "extensions": {}
}