{
  "accessors": [
    {
      "bufferView": 0,
      "componentType": 5126,
      "count": 1597,
      "type": "VEC3",
      "max": [
        1.67661953,
        0.7958535,
        1.042581
      ],
      "min": [
        1.15074706,
        0.4527495,
        0.513367236
      ]
    },
    {
      "bufferView": 1,
      "componentType": 5125,
      "count": 7626,
      "type": "SCALAR",
      "max": [
        1596.0
      ],
      "min": [
        0.0
      ]
    },
    {
      "bufferView": 2,
      "componentType": 5126,
      "count": 1597,
      "type": "VEC3",
      "max": [
        0.997717,
        0.9999786,
        0.9778186
      ],
      "min": [
        -0.9987753,
        -0.9999791,
        -0.9981462
      ]
    }
  ],
  "asset": {
    "version": "2.0"
  },
  "buffers": [
    {
      "uri": "data:application/octet-stream;base64,",
      "byteLength": 19164
    },
    {
      "uri": "data:application/octet-stream;base64,",
      "byteLength": 30504
    },
    {
      "uri": "data:application/octet-stream;base64,",
      "byteLength": 19164
    }
  ],
  "bufferViews": [
    {
      "buffer": 0,
      "byteLength": 19164,
      "target": 34962
    },
    {
      "buffer": 1,
      "byteLength": 30504,
      "target": 34963
    },
    {
      "buffer": 2,
      "byteLength": 19164,
      "target": 34962
    }
  ],
  "materials": [
    {
      "name": "_[imported]",
      "pbrMetallicRoughness": {
        "baseColorFactor": [
          0.0253712758,
          0.0253712758,
          0.0253712758,
          1.0
        ],
        "metallicFactor": 0.0
      }
    }
  ],
  "meshes": [
    {
      "primitives": [
        {
          "attributes": {
            "POSITION": 0,
            "NORMAL": 2
          },
          "indices": 1,
          "material": 0
        }
      ]
    }
  ],
  "nodes": [
    {
      "mesh": 0
    }
  ],
  "samplers": [
    {
      "magFilter": 9729,
      "minFilter": 9729
    }
  ],
  "scene": 0,
  "scenes": [
    {
      "nodes": [
        0
      ],
      "extensions": {}
    }
  ],
  "extensions": {}
}