{
  "accessors": [
    {
      "bufferView": 0,
      "componentType": 5126,
      "count": 83533,
      "type": "VEC3",
      "max": [
        -0.367373884,
        1.24458671,
        -1.25384545
      ],
      "min": [
        -0.8369455,
        1.14454091,
        -1.55804682
      ]
    },
    {
      "bufferView": 1,
      "componentType": 5125,
      "count": 152307,
      "type": "SCALAR",
      "max": [
        83532.0
      ],
      "min": [
        0.0
      ]
    },
    {
      "bufferView": 2,
      "componentType": 5126,
      "count": 83533,
      "type": "VEC3",
      "max": [
        1.0,
        1.0,
        1.0
      ],
      "min": [
        -1.0,
        -1.0,
        -1.0
      ]
    }
  ],
  "asset": {
    "version": "2.0"
  },
  "buffers": [
    {
      "uri": "data:application/octet-stream;base64,",
      "byteLength": 1002396
    },
    {
      "uri": "data:application/octet-stream;base64,",
      "byteLength": 609228
    },
    {
      "uri": "data:application/octet-stream;base64,",
      "byteLength": 1002396
    }
  ],
  "bufferViews": [
    {
      "buffer": 0,
      "byteLength": 1002396,
      "target": 34962
    },
    {
      "buffer": 1,
      "byteLength": 609228,
      "target": 34963
    },
    {
      "buffer": 2,
      "byteLength": 1002396,
      "target": 34962
    }
  ],
  "materials": [
    {
      "pbrMetallicRoughness": {
        "baseColorFactor": [
          0.957369566,
          0.957369566,
          0.957369566,
          1.0
        ],
        "metallicFactor": 0.0
      }
    }
  ],
  "meshes": [
    {
      "primitives": [
        {
          "attributes": {
            "POSITION": 0,
            "NORMAL": 2
          },
          "indices": 1,
          "material": 0
        }
      ]
    }
  ],
  "nodes": [
    {
      "mesh": 0,
      "name": "STLB ATF 7.6.0.251 COLOR="
    }
  ],
  "samplers": [
    {
      "magFilter": 9729,
      "minFilter": 9729
    }
  ],
  "scene": 0,
  "scenes": [
    {
      "nodes": [
        0
      ],
      "extensions": {}
    }
  ],
  "extensions": {}
}