{
  "accessors": [
    {
      "bufferView": 0,
      "componentType": 5126,
      "count": 36,
      "type": "VEC3",
      "max": [
        2.5625217,
        0.7258804,
        1.40731239
      ],
      "min": [
        2.01980352,
        0.0230969712,
        0.8744421
      ]
    },
    {
      "bufferView": 1,
      "componentType": 5125,
      "count": 84,
      "type": "SCALAR",
      "max": [
        35.0
      ],
      "min": [
        0.0
      ]
    },
    {
      "bufferView": 2,
      "componentType": 5126,
      "count": 36,
      "type": "VEC3",
      "max": [
        0.707262933,
        0.556684,
        0.6792276
      ],
      "min": [
        -0.650496,
        -0.8307243,
        -0.837455332
      ]
    },
    {
      "bufferView": 3,
      "componentType": 5126,
      "count": 1140,
      "type": "VEC3",
      "max": [
        2.5625217,
        1.00471044,
        1.29299212
      ],
      "min": [
        2.11598086,
        0.723096967,
        0.8744421
      ]
    },
    {
      "bufferView": 4,
      "componentType": 5125,
      "count": 5790,
      "type": "SCALAR",
      "max": [
        1139.0
      ],
      "min": [
        0.0
      ]
    },
    {
      "bufferView": 5,
      "componentType": 5126,
      "count": 1140,
      "type": "VEC3",
      "max": [
        0.993059635,
        0.9997328,
        0.9961245
      ],
      "min": [
        -0.998325765,
        -1.0,
        -0.998643339
      ]
    },
    {
      "bufferView": 6,
      "componentType": 5126,
      "count": 1634,
      "type": "VEC3",
      "max": [
        2.60133886,
        1.05789781,
        -0.035533227
      ],
      "min": [
        2.3602438,
        0.983396947,
        -0.2766283
      ]
    },
    {
      "bufferView": 7,
      "componentType": 5125,
      "count": 8088,
      "type": "SCALAR",
      "max": [
        1633.0
      ],
      "min": [
        0.0
      ]
    },
    {
      "bufferView": 8,
      "componentType": 5126,
      "count": 1634,
      "type": "VEC3",
      "max": [
        0.9987582,
        1.0,
        0.9987593
      ],
      "min": [
        -0.9987573,
        -1.0,
        -0.9987572
      ]
    }
  ],
  "asset": {
    "version": "2.0"
  },
  "buffers": [
    {
      "uri": "data:application/octet-stream;base64,",
      "byteLength": 432
    },
    {
      "uri": "data:application/octet-stream;base64,",
      "byteLength": 336
    },
    {
      "uri": "data:application/octet-stream;base64,",
      "byteLength": 432
    },
    {
      "uri": "data:application/octet-stream;base64,",
      "byteLength": 13680
    },
    {
      "uri": "data:application/octet-stream;base64,",
      "byteLength": 23160
    },
    {
      "uri": "data:application/octet-stream;base64,",
      "byteLength": 13680
    },
    {
      "uri": "data:application/octet-stream;base64,",
      "byteLength": 19608
    },
    {
      "uri": "data:application/octet-stream;base64,",
      "byteLength": 32352
    },
    {
      "uri": "data:application/octet-stream;base64,",
      "byteLength": 19608
    }
  ],
  "bufferViews": [
    {
      "buffer": 0,
      "byteLength": 432,
      "target": 34962
    },
    {
      "buffer": 1,
      "byteLength": 336,
      "target": 34963
    },
    {
      "buffer": 2,
      "byteLength": 432,
      "target": 34962
    },
    {
      "buffer": 3,
      "byteLength": 13680,
      "target": 34962
    },
    {
      "buffer": 4,
      "byteLength": 23160,
      "target": 34963
    },
    {
      "buffer": 5,
      "byteLength": 13680,
      "target": 34962
    },
    {
      "buffer": 6,
      "byteLength": 19608,
      "target": 34962
    },
    {
      "buffer": 7,
      "byteLength": 32352,
      "target": 34963
    },
    {
      "buffer": 8,
      "byteLength": 19608,
      "target": 34962
    }
  ],
  "materials": [
    {
      "name": "_[imported]",
      "pbrMetallicRoughness": {
        "baseColorFactor": [
          0.0253712758,
          0.0253712758,
          0.0253712758,
          1.0
        ],
        "metallicFactor": 0.0
      }
    },
    {
      "name": "_[imported]",
      "pbrMetallicRoughness": {
        "baseColorFactor": [
          0.0253712758,
          0.0253712758,
          0.0253712758,
          1.0
        ],
        "metallicFactor": 0.0
      }
    },
    {
      "name": "_[imported]",
      "pbrMetallicRoughness": {
        "baseColorFactor": [
          0.0253712758,
          0.0253712758,
          0.0253712758,
          1.0
        ],
        "metallicFactor": 0.0
      }
    }
  ],
  "meshes": [
    {
      "primitives": [
        {
          "attributes": {
            "POSITION": 0,
            "NORMAL": 2
          },
          "indices": 1,
          "material": 0
        }
      ]
    },
    {
      "primitives": [
        {
          "attributes": {
            "POSITION": 3,
            "NORMAL": 5
          },
          "indices": 4,
          "material": 1
        }
      ]
    },
    {
      "primitives": [
        {
          "attributes": {
            "POSITION": 6,
            "NORMAL": 8
          },
          "indices": 7,
          "material": 2
        }
      ]
    }
  ],
  "nodes": [
    {
      "mesh": 0
    },
    {
      "mesh": 1
    },
    {
      "mesh": 2
    }
  ],
  "samplers": [
    {
      "magFilter": 9729,
      "minFilter": 9729
    }
  ],
  "scene": 0,
  "scenes": [
    {
      "nodes": [
        0,
        1,
        2
      ],
      "extensions": {}
    }
  ],
  "extensions": {}
}