{
  "accessors": [
    {
      "bufferView": 0,
      "componentType": 5126,
      "count": 120,
      "type": "VEC3",
      "max": [
        2.474866,
        0.9958064,
        1.28029633
      ],
      "min": [
        2.307817,
        0.794308,
        1.03500831
      ]
    },
    {
      "bufferView": 1,
      "componentType": 5125,
      "count": 612,
      "type": "SCALAR",
      "max": [
        119.0
      ],
      "min": [
        0.0
      ]
    },
    {
      "bufferView": 2,
      "componentType": 5126,
      "count": 120,
      "type": "VEC3",
      "max": [
        0.8272285,
        1.0,
        0.8272285
      ],
      "min": [
        -0.8272285,
        -1.0,
        -0.8272285
      ]
    },
    {
      "bufferView": 3,
      "componentType": 5126,
      "count": 120,
      "type": "VEC2",
      "max": [
        0.74256146,
        1.0
      ],
      "min": [
        0.0,
        0.00146484375
      ]
    }
  ],
  "asset": {
    "version": "2.0"
  },
  "buffers": [
    {
      "uri": "data:application/octet-stream;base64,",
      "byteLength": 1440
    },
    {
      "uri": "data:application/octet-stream;base64,",
      "byteLength": 2448
    },
    {
      "uri": "data:application/octet-stream;base64,",
      "byteLength": 1440
    },
    {
      "uri": "data:application/octet-stream;base64,",
      "byteLength": 960
    }
  ],
  "bufferViews": [
    {
      "buffer": 0,
      "byteLength": 1440,
      "target": 34962
    },
    {
      "buffer": 1,
      "byteLength": 2448,
      "target": 34963
    },
    {
      "buffer": 2,
      "byteLength": 1440,
      "target": 34962
    },
    {
      "buffer": 3,
      "byteLength": 960,
      "target": 34962
    }
  ],
  "materials": [
    {
      "pbrMetallicRoughness": {
        "baseColorFactor": [
          0.957369566,
          0.957369566,
          0.957369566,
          1.0
        ],
        "metallicFactor": 0.0
      }
    }
  ],
  "meshes": [
    {
      "primitives": [
        {
          "attributes": {
            "POSITION": 0,
            "NORMAL": 2,
            "TEXCOORD_0": 3
          },
          "indices": 1,
          "material": 0
        }
      ]
    }
  ],
  "nodes": [
    {
      "mesh": 0
    }
  ],
  "samplers": [
    {
      "magFilter": 9729,
      "minFilter": 9729
    }
  ],
  "scene": 0,
  "scenes": [
    {
      "nodes": [
        0
      ],
      "extensions": {}
    }
  ],
  "extensions": {}
}