{
  "accessors": [
    {
      "bufferView": 0,
      "componentType": 5126,
      "count": 1664,
      "type": "VEC3",
      "max": [
        2.69750953,
        0.783086956,
        2.390489
      ],
      "min": [
        -3.36528325,
        0.0230969712,
        -0.440885931
      ]
    },
    {
      "bufferView": 1,
      "componentType": 5125,
      "count": 4464,
      "type": "SCALAR",
      "max": [
        1663.0
      ],
      "min": [
        0.0
      ]
    },
    {
      "bufferView": 2,
      "componentType": 5126,
      "count": 1664,
      "type": "VEC3",
      "max": [
        1.0,
        1.0,
        1.0
      ],
      "min": [
        -1.0,
        -1.0,
        -1.0
      ]
    },
    {
      "bufferView": 3,
      "componentType": 5126,
      "count": 1664,
      "type": "VEC2",
      "max": [
        3.58006859,
        0.8384228
      ],
      "min": [
        -2.58006859,
        0.07730043
      ]
    }
  ],
  "asset": {
    "version": "2.0"
  },
  "buffers": [
    {
      "uri": "data:application/octet-stream;base64,",
      "byteLength": 19968
    },
    {
      "uri": "data:application/octet-stream;base64,",
      "byteLength": 17856
    },
    {
      "uri": "data:application/octet-stream;base64,",
      "byteLength": 19968
    },
    {
      "uri": "data:application/octet-stream;base64,",
      "byteLength": 13312
    }
  ],
  "bufferViews": [
    {
      "buffer": 0,
      "byteLength": 19968,
      "target": 34962
    },
    {
      "buffer": 1,
      "byteLength": 17856,
      "target": 34963
    },
    {
      "buffer": 2,
      "byteLength": 19968,
      "target": 34962
    },
    {
      "buffer": 3,
      "byteLength": 13312,
      "target": 34962
    }
  ],
  "materials": [
    {
      "pbrMetallicRoughness": {
        "baseColorFactor": [
          0.957369566,
          0.957369566,
          0.957369566,
          1.0
        ],
        "metallicFactor": 0.0
      }
    }
  ],
  "meshes": [
    {
      "primitives": [
        {
          "attributes": {
            "POSITION": 0,
            "NORMAL": 2,
            "TEXCOORD_0": 3
          },
          "indices": 1,
          "material": 0
        }
      ]
    }
  ],
  "nodes": [
    {
      "mesh": 0
    }
  ],
  "samplers": [
    {
      "magFilter": 9729,
      "minFilter": 9729
    }
  ],
  "scene": 0,
  "scenes": [
    {
      "nodes": [
        0
      ],
      "extensions": {}
    }
  ],
  "extensions": {}
}